# xmcd CD database file
# Generated: Sam Jun 5 11:54:38 2004 by KSCD
# 
# Track frame offsets:
#       150
#       16031
#       34290
#       49588
#       69756
#       85356
#       117762
#       141734
#       161751
#       185109
#       214940
#       248278
#       269008
#       287600
#       314694
#
# Disc length: 4451 seconds
#
# Revision: 1
# Processed by: cddbd v1.5PL3 Copyright (c) Steve Scherf et al.
# Submitted via: Kscd 1.3.3
#
DISCID=de11610f
DTITLE=The Eagles - Hell Freezes Over
DYEAR=1900
DGENRE=
TTITLE0=Get Over It
TTITLE1=Love Will Keep Us Alive
TTITLE2=The Girl From Yesterday
TTITLE3=Learn To Be Still
TTITLE4=Tequila Sunrise
TTITLE5=Hotel California
TTITLE6=Wasted Time
TTITLE7=Pretty Maids All In A Row
TTITLE8=I Can't Tell You Why
TTITLE9=New York Minute
TTITLE10=The Last Resort
TTITLE11=Take It Easy
TTITLE12=In The City
TTITLE13=Life In The Fast Lane
TTITLE14=Desperado
EXTD=
EXTT0=
EXTT1=
EXTT2=
EXTT3=
EXTT4=
EXTT5=
EXTT6=
EXTT7=
EXTT8=
EXTT9=
EXTT10=
EXTT11=
EXTT12=
EXTT13=
EXTT14=
PLAYORDER=
